{
	"asset":{
		"generator":"Khronos glTF Blender I/O v3.5.30",
		"version":"2.0"
	},
	"scene":0,
	"scenes":[
		{
			"name":"Scene",
			"nodes":[
				0
			]
		}
	],
	"nodes":[
		{
			"mesh":0,
			"name":"\u62c9\u4f38\u548c\u538b\u7f29\u7bad\u5934",
			"rotation":[
				0.70710688829422,
				0,
				0,
				0.7071066498756409
			]
		}
	],
	"animations":[
		{
			"channels":[
				{
					"sampler":0,
					"target":{
						"node":0,
						"path":"translation"
					}
				},
				{
					"sampler":1,
					"target":{
						"node":0,
						"path":"rotation"
					}
				},
				{
					"sampler":2,
					"target":{
						"node":0,
						"path":"scale"
					}
				}
			],
			"name":"\u62c9\u4f38\u548c\u538b\u7f29\u7bad\u5934|\u62c9\u4f38\u548c\u538b\u7f29\u7bad\u5934|\u62c9\u4f38\u548c\u538b\u7f29",
			"samplers":[
				{
					"input":3,
					"interpolation":"LINEAR",
					"output":4
				},
				{
					"input":3,
					"interpolation":"LINEAR",
					"output":5
				},
				{
					"input":3,
					"interpolation":"LINEAR",
					"output":6
				}
			]
		}
	],
	"materials":[
		{
			"doubleSided":true,
			"name":"\u6750\u8d28.003",
			"pbrMetallicRoughness":{
				"baseColorFactor":[
					0.3762618899345398,
					0.584078311920166,
					0.019382527098059654,
					1
				],
				"metallicFactor":0,
				"roughnessFactor":0.5
			}
		}
	],
	"meshes":[
		{
			"name":"model_0.002",
			"primitives":[
				{
					"attributes":{
						"POSITION":0,
						"NORMAL":1
					},
					"indices":2,
					"material":0
				}
			]
		}
	],
	"accessors":[
		{
			"bufferView":0,
			"componentType":5126,
			"count":120,
			"max":[
				117.0374755859375,
				35.93505859375,
				5.023017883300781
			],
			"min":[
				-106.14215087890625,
				-35.652679443359375,
				-5.0626678466796875
			],
			"type":"VEC3"
		},
		{
			"bufferView":1,
			"componentType":5126,
			"count":120,
			"type":"VEC3"
		},
		{
			"bufferView":2,
			"componentType":5123,
			"count":180,
			"type":"SCALAR"
		},
		{
			"bufferView":3,
			"componentType":5126,
			"count":31,
			"max":[
				1.2916666666666667
			],
			"min":[
				0.041666666666666664
			],
			"type":"SCALAR"
		},
		{
			"bufferView":4,
			"componentType":5126,
			"count":31,
			"type":"VEC3"
		},
		{
			"bufferView":5,
			"componentType":5126,
			"count":31,
			"type":"VEC4"
		},
		{
			"bufferView":6,
			"componentType":5126,
			"count":31,
			"type":"VEC3"
		}
	],
	"bufferViews":[
		{
			"buffer":0,
			"byteLength":1440,
			"byteOffset":0,
			"target":34962
		},
		{
			"buffer":0,
			"byteLength":1440,
			"byteOffset":1440,
			"target":34962
		},
		{
			"buffer":0,
			"byteLength":360,
			"byteOffset":2880,
			"target":34963
		},
		{
			"buffer":0,
			"byteLength":124,
			"byteOffset":3240
		},
		{
			"buffer":0,
			"byteLength":372,
			"byteOffset":3364
		},
		{
			"buffer":0,
			"byteLength":496,
			"byteOffset":3736
		},
		{
			"buffer":0,
			"byteLength":372,
			"byteOffset":4232
		}
	],
	"buffers":[
		{
			"byteLength":4604,
			"uri":"data:application/octet-stream;base64,"
		}
	]
}
