{
	"asset":{
		"generator":"Khronos glTF Blender I/O v3.5.30",
		"version":"2.0"
	},
	"scene":0,
	"scenes":[
		{
			"name":"Scene",
			"nodes":[
				0
			]
		}
	],
	"nodes":[
		{
			"mesh":0,
			"name":"\u62e7\u7bad\u5934",
			"rotation":[
				0.7071068286895752,
				0,
				0,
				0.7071068286895752
			]
		}
	],
	"animations":[
		{
			"channels":[
				{
					"sampler":0,
					"target":{
						"node":0,
						"path":"translation"
					}
				},
				{
					"sampler":1,
					"target":{
						"node":0,
						"path":"rotation"
					}
				},
				{
					"sampler":2,
					"target":{
						"node":0,
						"path":"scale"
					}
				}
			],
			"name":"\u62e7\u7bad\u5934Action",
			"samplers":[
				{
					"input":3,
					"interpolation":"LINEAR",
					"output":4
				},
				{
					"input":3,
					"interpolation":"LINEAR",
					"output":5
				},
				{
					"input":3,
					"interpolation":"LINEAR",
					"output":6
				}
			]
		}
	],
	"materials":[
		{
			"doubleSided":true,
			"name":"\u6750\u8d28",
			"pbrMetallicRoughness":{
				"baseColorFactor" : [
                    0.6470590233802795,
                    0.7882350087165833,
                    0.1490200012922287,
                    1
                ],
                "metallicFactor" : 0,
                "roughnessFactor" : 0
			}
		}
	],
	"meshes":[
		{
			"name":"model_0.004",
			"primitives":[
				{
					"attributes":{
						"POSITION":0,
						"NORMAL":1
					},
					"indices":2,
					"material":0
				}
			]
		}
	],
	"accessors":[
		{
			"bufferView":0,
			"componentType":5126,
			"count":397,
			"max":[
				86.7663803100586,
				9.423295974731445,
				31.707603454589844
			],
			"min":[
				-67.18460845947266,
				-9.470529556274414,
				-30.180374145507812
			],
			"type":"VEC3"
		},
		{
			"bufferView":1,
			"componentType":5126,
			"count":397,
			"type":"VEC3"
		},
		{
			"bufferView":2,
			"componentType":5123,
			"count":762,
			"type":"SCALAR"
		},
		{
			"bufferView":3,
			"componentType":5126,
			"count":31,
			"max":[
				1.25
			],
			"min":[
				0
			],
			"type":"SCALAR"
		},
		{
			"bufferView":4,
			"componentType":5126,
			"count":31,
			"type":"VEC3"
		},
		{
			"bufferView":5,
			"componentType":5126,
			"count":31,
			"type":"VEC4"
		},
		{
			"bufferView":6,
			"componentType":5126,
			"count":31,
			"type":"VEC3"
		}
	],
	"bufferViews":[
		{
			"buffer":0,
			"byteLength":4764,
			"byteOffset":0,
			"target":34962
		},
		{
			"buffer":0,
			"byteLength":4764,
			"byteOffset":4764,
			"target":34962
		},
		{
			"buffer":0,
			"byteLength":1524,
			"byteOffset":9528,
			"target":34963
		},
		{
			"buffer":0,
			"byteLength":124,
			"byteOffset":11052
		},
		{
			"buffer":0,
			"byteLength":372,
			"byteOffset":11176
		},
		{
			"buffer":0,
			"byteLength":496,
			"byteOffset":11548
		},
		{
			"buffer":0,
			"byteLength":372,
			"byteOffset":12044
		}
	],
	"buffers":[
		{
			"byteLength":12416,
			"uri":"data:application/octet-stream;base64,"
		}
	]
}
