{
	"asset":{
		"generator":"Khronos glTF Blender I/O v3.5.30",
		"version":"2.0"
	},
	"scene":0,
	"scenes":[
		{
			"name":"Scene",
			"nodes":[
				0
			]
		}
	],
	"nodes":[
		{
			"mesh":0,
			"name":"\u8f6c\u7bad\u5934.001",
			"rotation":[
				-0.7071068286895752,
				0,
				0,
				0.7071068286895752
			]
		}
	],
	"animations":[
		{
			"channels":[
				{
					"sampler":0,
					"target":{
						"node":0,
						"path":"translation"
					}
				},
				{
					"sampler":1,
					"target":{
						"node":0,
						"path":"rotation"
					}
				},
				{
					"sampler":2,
					"target":{
						"node":0,
						"path":"scale"
					}
				}
			],
			"name":"\u8f6c\u7bad\u5934.001Action",
			"samplers":[
				{
					"input":3,
					"interpolation":"LINEAR",
					"output":4
				},
				{
					"input":3,
					"interpolation":"LINEAR",
					"output":5
				},
				{
					"input":3,
					"interpolation":"LINEAR",
					"output":6
				}
			]
		}
	],
	"materials":[
		{
			"doubleSided":true,
			"name":"\u6750\u8d28.007",
			"pbrMetallicRoughness":{
				"baseColorFactor":[
					0.3762618899345398,
					0.584078311920166,
					0.019382527098059654,
					1
				],
				"metallicFactor":0,
				"roughnessFactor":0.5
			}
		}
	],
	"meshes":[
		{
			"name":"model_0.005",
			"primitives":[
				{
					"attributes":{
						"POSITION":0,
						"NORMAL":1
					},
					"indices":2,
					"material":0
				}
			]
		}
	],
	"accessors":[
		{
			"bufferView":0,
			"componentType":5126,
			"count":975,
			"max":[
				85.05619049072266,
				99.06472778320312,
				5.9753265380859375
			],
			"min":[
				-103.72549438476562,
				-84.06448364257812,
				-5.9282402992248535
			],
			"type":"VEC3"
		},
		{
			"bufferView":1,
			"componentType":5126,
			"count":975,
			"type":"VEC3"
		},
		{
			"bufferView":2,
			"componentType":5123,
			"count":2799,
			"type":"SCALAR"
		},
		{
			"bufferView":3,
			"componentType":5126,
			"count":30,
			"max":[
				1.25
			],
			"min":[
				0.041666666666666664
			],
			"type":"SCALAR"
		},
		{
			"bufferView":4,
			"componentType":5126,
			"count":30,
			"type":"VEC3"
		},
		{
			"bufferView":5,
			"componentType":5126,
			"count":30,
			"type":"VEC4"
		},
		{
			"bufferView":6,
			"componentType":5126,
			"count":30,
			"type":"VEC3"
		}
	],
	"bufferViews":[
		{
			"buffer":0,
			"byteLength":11700,
			"byteOffset":0,
			"target":34962
		},
		{
			"buffer":0,
			"byteLength":11700,
			"byteOffset":11700,
			"target":34962
		},
		{
			"buffer":0,
			"byteLength":5598,
			"byteOffset":23400,
			"target":34963
		},
		{
			"buffer":0,
			"byteLength":120,
			"byteOffset":29000
		},
		{
			"buffer":0,
			"byteLength":360,
			"byteOffset":29120
		},
		{
			"buffer":0,
			"byteLength":480,
			"byteOffset":29480
		},
		{
			"buffer":0,
			"byteLength":360,
			"byteOffset":29960
		}
	],
	"buffers":[
		{
			"byteLength":30320,
			"uri":"data:application/octet-stream;base64,"
		}
	]
}
