{
	"asset":{
		"generator":"Khronos glTF Blender I/O v3.5.30",
		"version":"2.0"
	},
	"scene":0,
	"scenes":[
		{
			"name":"Scene",
			"nodes":[
				0
			]
		}
	],
	"nodes":[
		{
			"mesh":0,
			"name":"\u9759\u6001\u7bad\u5934"
		}
	],
	"animations":[
		{
			"channels":[
				{
					"sampler":0,
					"target":{
						"node":0,
						"path":"translation"
					}
				},
				{
					"sampler":1,
					"target":{
						"node":0,
						"path":"rotation"
					}
				},
				{
					"sampler":2,
					"target":{
						"node":0,
						"path":"scale"
					}
				}
			],
			"name":"\u9759\u6001\u7bad\u5934",
			"samplers":[
				{
					"input":3,
					"interpolation":"LINEAR",
					"output":4
				},
				{
					"input":3,
					"interpolation":"LINEAR",
					"output":5
				},
				{
					"input":3,
					"interpolation":"LINEAR",
					"output":6
				}
			]
		}
	],
	"materials":[
		{
			"doubleSided":true,
			"name":"\u6750\u8d28.007",
			"pbrMetallicRoughness":{
				"baseColorFactor":[
					0.3762618899345398,
					0.584078311920166,
					0.019382527098059654,
					1
				],
				"metallicFactor":0,
				"roughnessFactor":0.5
			}
		}
	],
	"meshes":[
		{
			"name":"model_0.003",
			"primitives":[
				{
					"attributes":{
						"POSITION":0,
						"NORMAL":1
					},
					"indices":2,
					"material":0
				}
			]
		}
	],
	"accessors":[
		{
			"bufferView":0,
			"componentType":5126,
			"count":36,
			"max":[
				47.97021484375,
				4.998046875,
				31.49321746826172
			],
			"min":[
				-105.98077392578125,
				-4.998046875,
				-30.394760131835938
			],
			"type":"VEC3"
		},
		{
			"bufferView":1,
			"componentType":5126,
			"count":36,
			"type":"VEC3"
		},
		{
			"bufferView":2,
			"componentType":5123,
			"count":60,
			"type":"SCALAR"
		},
		{
			"bufferView":3,
			"componentType":5126,
			"count":62,
			"max":[
				2.5416666666666665
			],
			"min":[
				0
			],
			"type":"SCALAR"
		},
		{
			"bufferView":4,
			"componentType":5126,
			"count":62,
			"type":"VEC3"
		},
		{
			"bufferView":5,
			"componentType":5126,
			"count":62,
			"type":"VEC4"
		},
		{
			"bufferView":6,
			"componentType":5126,
			"count":62,
			"type":"VEC3"
		}
	],
	"bufferViews":[
		{
			"buffer":0,
			"byteLength":432,
			"byteOffset":0,
			"target":34962
		},
		{
			"buffer":0,
			"byteLength":432,
			"byteOffset":432,
			"target":34962
		},
		{
			"buffer":0,
			"byteLength":120,
			"byteOffset":864,
			"target":34963
		},
		{
			"buffer":0,
			"byteLength":248,
			"byteOffset":984
		},
		{
			"buffer":0,
			"byteLength":744,
			"byteOffset":1232
		},
		{
			"buffer":0,
			"byteLength":992,
			"byteOffset":1976
		},
		{
			"buffer":0,
			"byteLength":744,
			"byteOffset":2968
		}
	],
	"buffers":[
		{
			"byteLength":3712,
			"uri":"data:application/octet-stream;base64,"
		}
	]
}
